<svg xmlns="http://www.w3.org/2000/svg" version="1.1" xmlns:xlink="http://www.w3.org/1999/xlink" xmlns:svgjs="http://svgjs.dev/svgjs" viewBox="0 0 800 800"><defs><filter id="uuunion-blur" x="-100%" y="-100%" width="400%" height="400%" color-interpolation-filters="sRGB">
        <feGaussianBlur in="SourceGraphic" stdDeviation="0 0" result="blur"></feGaussianBlur>
        <feDropShadow stdDeviation="14.76923076923077" in="blur" dx="12" dy="12" flood-color="hsl(230, 55%, 40%)" flood-opacity="0.32" x="0%" y="0%" width="100%" height="100%"></feDropShadow>
      </filter><filter id="uuunion-blur2" x="-100%" y="-100%" width="400%" height="400%" color-interpolation-filters="sRGB">
        <feGaussianBlur in="SourceGraphic" stdDeviation="0 0" result="blur"></feGaussianBlur>
        <feDropShadow stdDeviation="14.76923076923077" in="blur" dx="-12" dy="-12" flood-color="hsl(230, 55%, 40%)" flood-opacity="0.32" x="0%" y="0%" width="100%" height="100%"></feDropShadow>
      </filter><linearGradient gradientTransform="rotate(32, 0.5, 0.5)" x1="50%" y1="0%" x2="50%" y2="100%" id="uuunion-grad"><stop stop-color="hsl(230, 55%, 70%)" offset="10%"></stop><stop stop-color="hsl(230, 55%, 40%)" offset="90%"></stop></linearGradient><linearGradient gradientTransform="rotate(142, 0.5, 0.5)" x1="50%" y1="0%" x2="50%" y2="100%" id="uuunion-grad2"><stop stop-color="hsl(230, 55%, 70%)" offset="25%"></stop><stop stop-color="hsl(230, 55%, 40%)" offset="100%"></stop></linearGradient><linearGradient gradientTransform="rotate(333, 0.5, 0.5)" x1="50%" y1="0%" x2="50%" y2="100%" id="uuunion-grad3"><stop stop-color="hsl(230, 55%, 70%)" offset="0%"></stop><stop stop-color="hsl(230, 55%, 40%)" offset="75%"></stop></linearGradient></defs><path d="M-79.98 -81.99Q-65 -78.77 -50.01 -75.69 -35.03 -73.08 -20.04 -71.24 -5.05 -70.35 9.92 -70.53 24.91 -71.75 39.89 -73.88 54.88 -76.68 69.86 -79.85 84.85 -83.03 99.83 -85.88 114.82 -88.08 129.8 -89.39 144.79 -89.66 159.78 -88.88 174.76 -87.11 189.75 -84.56 204.73 -81.51 219.72 -78.29 234.7 -75.26 249.69 -72.75 264.67 -71.04 279.66 -70.31 294.64 -70.65 309.63 -72.02 324.62 -74.27 339.6 -77.14 354.59 -80.33 369.57 -83.49 384.56 -86.26 399.54 -88.34 414.53 -89.5 429.51 -89.61 444.5 -88.67 459.48 -86.77 474.47 -84.13 489.46 -81.03 504.44 -77.82 519.43 -74.84 534.41 -72.44 549.4 -70.86 564.38 -70.3 579.37 -70.8 594.35 -72.31 609.34 -74.67 624.32 -77.61 639.31 -80.82 654.3 -83.94 669.28 -86.62 684.27 -88.57 699.25 -89.58 714.24 -89.54 729.22 -88.44 744.21 -86.41 759.19 -83.68 774.18 -80.54 789.16 -77.34 804.15 -74.44 819.14 -72.14 834.12 -70.71 849.11 -70.3 867.79 -64.27 866.67 -42.53 866.15 -27.49 870.12 -12.44 877.28 2.59 885.32 17.63 891.64 32.68 894.19 47.72 892.14 62.76 886.16 77.8 878.19 92.85 870.8 107.89 866.39 122.93 866.38 137.98 870.78 153.02 878.16 168.06 886.14 183.1 892.13 198.15 894.19 213.19 891.65 228.23 885.35 243.28 877.3 258.32 870.14 273.36 866.16 288.4 866.66 303.45 871.48 318.49 879.05 333.53 886.93 348.57 892.57 363.62 894.13 378.66 891.12 393.7 884.51 408.75 876.43 423.79 869.51 438.83 865.98 453.87 866.99 468.92 872.21 483.96 879.95 499 887.7 514.05 892.96 529.09 894.02 544.13 890.54 559.17 883.65 574.22 875.57 589.26 868.93 604.3 865.87 619.35 867.38 634.39 872.97 649.43 880.84 664.47 888.44 679.52 893.3 694.56 893.85 709.6 889.92 724.64 882.78 739.69 874.73 754.73 868.39 769.77 865.8 784.82 867.81 799.86 873.76 814.9 881.73 829.94 889.14 844.99 893.58 860.03 893.63 875.07 889.27 890.12 874.12 892.38 858.97 893.28 843.83 892.72 828.68 890.76 813.53 887.62 798.38 883.63 783.24 879.24 768.09 874.94 752.94 871.19 737.8 868.42 722.65 866.91 707.5 866.85 692.36 868.23 677.21 870.91 662.06 874.59 646.92 878.87 631.77 883.26 616.62 887.3 601.47 890.54 586.33 892.61 571.18 893.29 556.03 892.52 540.89 890.36 525.74 887.06 510.59 882.98 495.45 878.58 480.3 874.33 465.15 870.7 450.01 868.1 434.86 866.81 419.71 866.97 404.57 868.56 389.42 871.41 374.27 875.21 359.12 879.53 343.98 883.91 328.83 887.85 313.68 890.93 298.54 892.8 283.39 893.27 268.24 892.27 253.1 889.93 237.95 886.49 222.8 882.33 207.66 877.92 192.51 873.73 177.36 870.24 162.21 867.82 147.07 866.74 131.92 867.12 116.77 868.91 101.63 871.93 86.48 875.84 71.33 880.2 56.19 884.54 41.04 888.38 25.89 891.29 10.75 892.97 -4.39 893.21 -19.54 892 -34.68 889.47 -49.83 885.9 -64.98 881.67 -80.13 877.26 -80.19 862.27 -80.19 847.28 -80.12 832.3 -80.02 817.31 -79.91 802.32 -79.82 787.33 -79.8 772.34 -79.83 757.35 -79.92 742.37 -80.03 727.38 -80.13 712.39 -80.19 697.4 -80.18 682.41 -80.11 667.42 -80.01 652.44 -79.9 637.45 -79.82 622.46 -79.8 607.47 -79.84 592.48 -79.93 577.49 -80.05 562.5 -80.14 547.52 -80.19 532.53 -80.18 517.54 -80.1 502.55 -79.99 487.56 -79.89 472.57 -79.81 457.59 -79.8 442.6 -79.85 427.61 -79.94 412.62 -80.06 397.63 -80.15 382.64 -80.19 367.65 -80.17 352.67 -80.09 337.68 -79.98 322.69 -79.88 307.7 -79.81 292.71 -79.8 277.72 -79.86 262.74 -79.96 247.75 -80.07 232.76 -80.16 217.77 -80.19 202.78 -80.17 187.79 -80.08 172.81 -79.97 157.82 -79.87 142.83 -79.8 127.84 -79.8 112.85 -79.87 97.86 -79.97 82.87 -80.08 67.89 -80.17 52.9 -80.19 37.91 -80.16 22.92 -80.07 7.93 -79.96 -7.05 -79.86 -22.03 -79.8 -37.02 -79.81 -52.01 -79.88 -67 -79.98 -81.99" fill="url(#uuunion-grad)"></path><path d="M-79.98 -81.99Q-79.88 -67 -79.81 -52.01 -79.8 -37.02 -79.86 -22.03 -79.96 -7.05 -80.07 7.93 -80.16 22.92 -80.19 37.91 -80.17 52.9 -80.08 67.89 -79.97 82.87 -79.87 97.86 -79.8 112.85 -79.8 127.84 -79.87 142.83 -79.97 157.82 -80.08 172.81 -80.17 187.79 -80.19 202.78 -80.16 217.77 -80.07 232.76 -79.96 247.75 -79.86 262.74 -79.8 277.72 -79.81 292.71 -79.88 307.7 -79.98 322.69 -80.09 337.68 -80.17 352.67 -80.19 367.65 -80.15 382.64 -80.06 397.63 -70.01 400.17 -59.96 402.7 -49.92 405.1 -39.87 407.24 -29.82 409.03 -19.77 410.38 -0.94 411.42 2.31 411.48 15.1 404.63 27.93 396.96 40.77 388.57 53.57 379.63 66.29 370.35 78.91 360.96 91.39 351.7 103.71 342.79 115.86 334.45 127.84 326.82 139.68 320.02 151.39 314.07 163.03 308.95 174.65 304.57 186.3 300.78 198.04 297.41 209.94 294.21 222.04 290.97 234.38 287.45 247 283.45 259.91 278.8 273.1 273.37 286.54 267.11 300.19 260.02 313.99 252.18 327.86 243.69 341.72 234.75 355.48 225.55 369.05 216.32 382.36 207.29 395.33 198.67 407.91 190.63 420.08 183.32 431.84 176.8 443.2 171.1 454.22 166.17 464.97 161.9 475.53 158.15 486.02 154.72 496.55 151.39 507.25 147.94 518.23 144.16 529.58 139.86 541.4 134.9 553.74 129.18 566.63 122.66 580.06 115.37 594.01 107.39 608.4 98.85 623.12 89.94 638.07 80.85 653.1 71.8 668.06 63.02 682.79 54.67 697.16 46.94 711.04 39.92 724.33 33.67 736.96 28.18 748.9 23.41 760.17 19.22 770.8 15.46 780.9 11.94 790.58 8.45 800 4.78 791.89 -12.74 787.32 -30.27 788.28 -47.8 794.35 -65.33 802.88 -82.87 810.15 -100.4 812.99 -117.93 810.17 -135.46 795.09 -138.41 780 -141.54 764.92 -144.49 749.84 -146.96 734.76 -148.67 719.68 -149.44 704.6 -149.18 689.52 -147.92 674.44 -145.8 659.35 -143.05 644.27 -139.97 629.19 -136.89 614.11 -134.14 599.03 -132.04 583.95 -130.8 568.87 -130.56 553.79 -131.34 538.71 -133.07 523.62 -135.55 508.54 -138.51 493.46 -141.64 478.38 -144.58 463.3 -147.03 448.22 -148.71 433.14 -149.45 418.06 -149.15 402.97 -147.86 387.89 -145.72 372.81 -142.95 357.73 -139.87 342.65 -136.79 327.57 -134.07 312.49 -131.98 297.41 -130.77 282.32 -130.57 267.24 -131.38 252.16 -133.14 237.08 -135.64 222 -138.61 206.92 -141.73 191.84 -144.67 176.76 -147.1 161.68 -148.75 146.59 -149.45 131.51 -149.13 116.43 -147.81 101.35 -145.64 86.27 -142.86 71.19 -139.77 56.11 -136.7 41.03 -133.99 25.94 -131.93 10.86 -130.75 -4.21 -130.58 -19.29 -131.43 -34.37 -133.21 -49.45 -135.73 -64.53 -138.71 -79.61 -141.83 -94.7 -144.76 -109.78 -147.16 -124.86 -148.79 -135 -136.12 -117.66 -118.21 -108.19 -109.55 -98.73 -100.58 -89.32 -91.37 -79.98 -81.99" fill="url(#uuunion-grad2)" filter="url(#uuunion-blur)"></path><path d="M804.13 405.5Q814.17 407.59 824.22 409.31 834.27 410.56 844.32 411.3 854.36 411.49 864.41 411.1 875.45 416.98 869.51 438.83 865.98 453.87 866.99 468.92 872.21 483.96 879.95 499 887.7 514.05 892.96 529.09 894.02 544.13 890.54 559.17 883.65 574.22 875.57 589.26 868.93 604.3 865.87 619.35 867.38 634.39 872.97 649.43 880.84 664.47 888.44 679.52 893.3 694.56 893.85 709.6 889.92 724.64 882.78 739.69 874.73 754.73 868.39 769.77 865.8 784.82 867.81 799.86 873.76 814.9 881.73 829.94 889.14 844.99 893.58 860.03 893.63 875.07 889.27 890.12 875.37 892.24 861.46 893.24 847.56 893 833.66 891.55 819.76 889.03 805.86 885.68 791.96 881.79 778.06 877.74 764.16 873.9 750.26 870.62 736.36 868.21 722.46 866.9 708.56 866.81 694.66 867.93 680.76 870.18 666.86 873.34 652.96 877.12 639.06 881.16 625.16 885.1 611.26 888.56 597.36 891.23 583.46 892.85 569.56 893.28 555.66 892.48 541.75 890.52 527.85 887.58 513.95 883.93 500.05 879.92 486.15 875.92 472.25 872.3 458.35 869.39 444.45 867.46 430.55 866.7 416.65 867.18 402.75 868.84 388.85 871.54 374.95 875.02 361.05 878.97 347.15 883.01 333.25 886.77 319.35 889.9 305.45 892.11 291.55 893.2 277.65 893.06 263.75 891.71 249.85 889.27 235.95 885.97 222.04 882.11 208.14 878.06 194.24 874.19 180.34 870.85 166.44 868.37 152.54 866.96 138.64 866.77 124.74 867.8 110.84 869.97 96.94 873.06 83.04 876.8 69.14 880.84 55.24 884.8 41.34 888.31 27.44 891.05 6.7 888.01 -0.01 873.22 -0.05 863.18 -0.23 853.14 -0.52 843.1 -0.87 833.07 -1.17 818.01 -0.6 813 11.57 806.22 23.75 798.5 35.96 789.94 48.25 780.72 60.63 771.08 73.15 761.26 85.82 751.56 98.64 742.23 111.62 733.5 124.73 725.56 137.95 718.55 151.23 712.51 164.52 707.42 177.77 703.2 190.91 699.68 203.9 696.65 216.68 693.87 229.22 691.06 241.5 687.97 253.5 684.35 265.24 680.01 276.74 674.8 288.07 668.64 299.27 661.53 310.42 653.54 321.61 644.81 332.92 635.53 344.44 625.93 356.24 616.28 368.37 606.82 380.89 597.82 393.8 589.46 407.12 581.92 420.8 575.29 434.8 569.6 449.03 564.8 463.41 560.76 477.83 557.34 492.17 554.29 506.31 551.39 520.15 548.36 533.59 544.97 546.56 540.99 559.01 536.26 570.92 530.66 582.3 524.15 593.21 516.75 603.72 508.55 613.92 499.7 623.96 490.4 633.97 480.9 644.1 471.43 654.49 462.25 665.28 453.58 676.59 445.6 688.5 438.44 701.07 432.17 714.31 426.79 728.21 422.22 742.7 418.33 757.68 414.95 773.02 411.84 796.34 407.14 804.13 405.5" fill="url(#uuunion-grad3)" filter="url(#uuunion-blur2)"></path></svg>