<?xml version="1.0" standalone="no"?><svg xmlns="http://www.w3.org/2000/svg" viewBox="0 0 1440 320"><path fill="#0099ff" fill-opacity="1" d="M0,288L21.8,256C43.6,224,87,160,131,144C174.5,128,218,160,262,144C305.5,128,349,64,393,85.3C436.4,107,480,213,524,224C567.3,235,611,149,655,128C698.2,107,742,149,785,149.3C829.1,149,873,107,916,85.3C960,64,1004,64,1047,85.3C1090.9,107,1135,149,1178,181.3C1221.8,213,1265,235,1309,218.7C1352.7,203,1396,149,1418,122.7L1440,96L1440,0L1418.2,0C1396.4,0,1353,0,1309,0C1265.5,0,1222,0,1178,0C1134.5,0,1091,0,1047,0C1003.6,0,960,0,916,0C872.7,0,829,0,785,0C741.8,0,698,0,655,0C610.9,0,567,0,524,0C480,0,436,0,393,0C349.1,0,305,0,262,0C218.2,0,175,0,131,0C87.3,0,44,0,22,0L0,0Z"></path></svg>